# xmcd
# 
# Track frame offsets:
#     150
#     43184
#     89076
#     152908
#     198878
#     248354
#     278192
#     323438
# 
# Disc length: 4777
# 
# Revision: 1
# Processed by: cddbd v1.5.2PL0 Copyright (c) Steve Scherf et al.
# Submitted via: BonkEnc v1.0.8
# 
DISCID=6412a708
DTITLE=Chick Corea, Trondheim Jazz Orchestra - Live In Molde
DYEAR=2000
DGENRE=Big Band
TTITLE0=Crystal Silence
TTITLE1=Windows
TTITLE2=Matrix
TTITLE3=Duende
TTITLE4=Armando's Rhumba
TTITLE5=Return to Forever
TTITLE6=Bud Powell
TTITLE7=Spain
EXTD=YEAR: 2000
EXTT0=
EXTT1=
EXTT2=
EXTT3=
EXTT4=
EXTT5=
EXTT6=
EXTT7=
PLAYORDER=
